<svg width="85" height="40" fill="none" xmlns="http://www.w3.org/2000/svg"><g clip-path="url(#a)" fill="#252525"><path d="M0 24.015h2.518v12.347H0V24.015Zm3.979 8.116a4.482 4.482 0 1 1 4.482 4.474 4.431 4.431 0 0 1-4.482-4.474Zm6.43 0A1.947 1.947 0 1 0 8.46 34.13a1.895 1.895 0 0 0 1.947-1.998ZM23.066 27.9v8.042c0 2.846-2.224 4.046-4.474 4.046a4.322 4.322 0 0 1-4.004-2.048l2.166-1.25a1.931 1.931 0 0 0 1.888 1.065 1.678 1.678 0 0 0 1.948-1.813v-.78a2.987 2.987 0 0 1-2.468 1.099 4.298 4.298 0 0 1 0-8.595 3.014 3.014 0 0 1 2.468 1.1v-.84l2.476-.025Zm-2.476 4.063a2.048 2.048 0 1 0-2.048 1.965 1.913 1.913 0 0 0 2.048-1.965Zm3.928.168a4.482 4.482 0 1 1 4.483 4.474 4.432 4.432 0 0 1-4.483-4.474Zm6.43 0A1.947 1.947 0 1 0 29 34.13a1.895 1.895 0 0 0 1.93-1.998h.017Zm3.702-6.496a1.527 1.527 0 1 1 1.527 1.527 1.536 1.536 0 0 1-1.527-1.527Zm.26 2.266h2.518v8.46H34.91v-8.46Zm13.497 4.231a4.25 4.25 0 0 1-4.038 4.474 3.215 3.215 0 0 1-2.518-1.033v4.197h-2.518V27.901h2.518v.798a3.214 3.214 0 0 1 2.518-1.033 4.246 4.246 0 0 1 4.038 4.466Zm-2.518 0a2.014 2.014 0 1 0-2.065 2.065 1.93 1.93 0 0 0 2.048-2.065h.017Zm10.358 1.695c0 1.947-1.679 2.778-3.526 2.778a3.71 3.71 0 0 1-3.634-2.014l2.2-1.251a1.393 1.393 0 0 0 1.434.999c.613 0 .915-.193.915-.529 0-.932-4.196-.437-4.196-3.358 0-1.846 1.56-2.778 3.357-2.778a3.718 3.718 0 0 1 3.307 1.813l-2.207 1.159a1.25 1.25 0 0 0-1.142-.748c-.436 0-.705.168-.705.479.034.965 4.197.319 4.197 3.45Zm9.266-5.927v8.462h-2.518v-.79a2.897 2.897 0 0 1-2.417 1.033c-1.679 0-3.165-1.217-3.165-3.508V27.9h2.519v4.826a1.392 1.392 0 0 0 1.519 1.536c.923 0 1.57-.537 1.57-1.737V27.9h2.492Zm14.555 3.274v5.188H77.55v-4.97c0-.839-.411-1.393-1.217-1.393s-1.326.596-1.326 1.595v4.768h-2.518v-4.97c0-.839-.403-1.393-1.217-1.393-.815 0-1.318.596-1.318 1.595v4.768h-2.518V27.9h2.518v.78a2.601 2.601 0 0 1 2.266-1.015 2.517 2.517 0 0 1 2.216 1.116 2.787 2.787 0 0 1 2.451-1.116c1.914 0 3.181 1.393 3.181 3.508Zm2.149-3.324a1.88 1.88 0 1 0 0-3.76 1.88 1.88 0 0 0 0 3.76Zm-53.72-10.24a8.805 8.805 0 1 0 0-17.61 8.805 8.805 0 0 0 0 17.61Zm19.683 0a8.805 8.805 0 1 0 0-17.61 8.805 8.805 0 0 0 0 17.61ZM17.619 0H.017v17.602h17.602V0Z"/></g><defs><clipPath id="a"><path fill="#fff" d="M0 0h84.097v40H0z"/></clipPath></defs></svg>