<svg width="151" height="35" fill="none" xmlns="http://www.w3.org/2000/svg"><g clip-path="url(#a)" fill="#252525"><path d="M42.642 10.699h3.803v15.403h-3.803V10.699Zm5.32 9.609c0-3.815 2.369-6.102 5.923-6.102 3.555 0 5.924 2.287 5.924 6.102 0 3.815-2.286 6.125-5.924 6.125-3.637 0-5.924-2.227-5.924-6.125Zm8.08 0c0-2.097-.818-3.33-2.121-3.33s-2.11 1.185-2.11 3.33c0 2.144.807 3.317 2.11 3.317s2.144-1.173 2.144-3.305l-.023-.012Zm5.284 6.587h3.673a1.966 1.966 0 0 0 2.062 1.185c1.457 0 2.215-.782 2.215-1.943v-2.133h.012a3.638 3.638 0 0 1-3.554 2.074c-2.785 0-4.633-2.12-4.633-5.77 0-3.65 1.765-5.924 4.74-5.924a3.637 3.637 0 0 1 3.554 2.24h-.107v-2.145h3.768v11.54c0 2.784-2.465 4.526-6.09 4.526-3.294-.012-5.403-1.517-5.616-3.638l-.024-.012Zm7.962-6.587c0-1.86-.853-3.033-2.204-3.033-1.35 0-2.18 1.184-2.18 3.033 0 1.848.818 2.938 2.18 2.938 1.363 0 2.204-1.007 2.204-2.938Zm5.272 0c0-3.815 2.37-6.102 5.924-6.102 3.555 0 5.925 2.287 5.925 6.102 0 3.815-2.299 6.125-5.925 6.125-3.625 0-5.9-2.227-5.9-6.125h-.024Zm8.08 0c0-2.097-.829-3.33-2.12-3.33-1.291 0-2.109 1.185-2.109 3.33 0 2.144.806 3.317 2.109 3.317s2.145-1.173 2.145-3.305l-.024-.012Zm5.309-8.637a1.942 1.942 0 1 1 1.943 1.86 1.874 1.874 0 0 1-1.92-1.849l-.023-.011Zm0 2.796h3.85v11.682h-3.791l-.06-11.682Zm17.701 5.84c0 3.804-1.706 6.008-4.609 6.008a3.638 3.638 0 0 1-3.554-2.168h-.072v5.758h-3.803V14.502h3.78v2.085h.07a3.661 3.661 0 0 1 3.555-2.25c2.986-.024 4.704 2.168 4.704 5.983l-.071-.012Zm-3.874 0c0-1.848-.865-3.044-2.204-3.044-1.339 0-2.18 1.185-2.192 3.045-.012 1.86.853 3.033 2.192 3.033 1.339 0 2.275-1.102 2.275-3.021l-.071-.012Zm10.367-6.113c3.187 0 5.166 1.505 5.189 3.922h-3.471c0-.841-.699-1.363-1.742-1.363-1.043 0-1.54.403-1.54 1.008 0 .604.438.793 1.315.971l2.441.498c2.369.497 3.317 1.445 3.317 3.21 0 2.37-2.192 3.982-5.45 3.982s-5.379-1.564-5.533-3.946h3.685c.106.865.793 1.375 1.907 1.375 1.114 0 1.635-.356 1.635-.984s-.355-.735-1.268-.924l-2.203-.462c-2.287-.486-3.484-1.683-3.484-3.472.071-2.322 2.062-3.803 5.273-3.803l-.071-.012Zm18.246 11.943h-3.685v-2.192h-.071a3.34 3.34 0 0 1-3.4 2.429 4.06 4.06 0 0 1-3.076-1.26 4.058 4.058 0 0 1-1.107-3.136v-7.5h3.803v6.683c0 1.374.723 2.12 1.908 2.12a1.942 1.942 0 0 0 1.908-2.227V14.48h3.791l-.071 11.658Zm1.836-11.67h3.697v2.25h.083a3.389 3.389 0 0 1 3.329-2.464 3.037 3.037 0 0 1 3.247 2.476h.165a3.555 3.555 0 0 1 3.555-2.476 3.693 3.693 0 0 1 3.617 2.44c.178.49.249 1.01.21 1.53v7.926h-3.827v-6.955c0-1.185-.557-1.848-1.635-1.848a1.657 1.657 0 0 0-1.671 1.884v6.919h-3.625v-6.99c0-1.185-.581-1.813-1.623-1.813a1.696 1.696 0 0 0-1.695 1.907v6.896h-3.803l-.024-11.682Zm-97.107-2.76a11.706 11.706 0 0 0-20.332-7.915H0V35h31.22V20.415a11.693 11.693 0 0 0 3.898-8.708Zm-6.007 0a5.712 5.712 0 0 1-9.745 4.054 5.71 5.71 0 1 1 9.745-4.054Zm-3.898 17.286H6.007V9.799h5.853a11.41 11.41 0 0 0-.178 1.908A11.73 11.73 0 0 0 23.4 23.424a11.455 11.455 0 0 0 1.813-.154v5.723Z"/></g><defs><clipPath id="a"><path fill="#fff" d="M0 0h150.138v35H0z"/></clipPath></defs></svg>