<svg width="152" height="35" fill="none" xmlns="http://www.w3.org/2000/svg"><g clip-path="url(#a)"><path d="M0 34.2h34.2V0H0v34.2Zm27.617-20.39h-7.226V6.582h7.226v7.226ZM6.581 6.582h7.231V20.39h13.805v7.226H6.581V6.583ZM56.471 0a17.1 17.1 0 1 0 17.1 17.1A17.12 17.12 0 0 0 56.47 0Zm0 27.617A10.517 10.517 0 1 1 66.988 17.1a10.533 10.533 0 0 1-10.517 10.517ZM134.763 0a17.099 17.099 0 0 0-12.094 29.191 17.103 17.103 0 0 0 18.636 3.707A17.102 17.102 0 0 0 151.861 17.1 17.12 17.12 0 0 0 134.763 0Zm0 27.617a10.52 10.52 0 0 1-9.718-6.491 10.517 10.517 0 1 1 20.234-4.026 10.53 10.53 0 0 1-3.086 7.432 10.527 10.527 0 0 1-7.43 3.085ZM95.616 0a17.1 17.1 0 1 0 17.1 17.1A17.121 17.121 0 0 0 95.616 0Zm0 27.617A10.518 10.518 0 1 1 105.6 13.81h-9.984v6.582h9.984a10.537 10.537 0 0 1-9.984 7.226Z" fill="#252525"/></g><defs><clipPath id="a"><path fill="#fff" d="M0 0h151.861v34.2H0z"/></clipPath></defs></svg>