<svg width="104" height="40" fill="none" xmlns="http://www.w3.org/2000/svg"><path d="M47.614 35.238h2.735V24.924h-2.735v10.314Zm0-11.923h2.735v-2.453h-2.735v2.453Zm4.496 15.301h2.735v-4.544h.04c.583.885 1.528 1.468 2.976 1.468 2.654 0 4.464-2.111 4.464-5.449 0-3.217-1.75-5.448-4.484-5.448-1.407 0-2.373.663-3.036 1.568h-.06v-1.287H52.11v13.692Zm5.168-5.348c-1.629 0-2.493-1.226-2.493-3.096 0-1.85.683-3.318 2.392-3.318 1.69 0 2.373 1.367 2.373 3.318 0 1.95-.885 3.096-2.272 3.096ZM67.78 35.54c2.573 0 4.342-1.247 4.342-3.318 0-2.412-1.91-2.895-3.64-3.257-1.467-.301-2.834-.382-2.834-1.266 0-.744.704-1.146 1.77-1.146 1.165 0 1.869.402 1.99 1.508h2.473c-.201-2.071-1.71-3.418-4.424-3.418-2.352 0-4.202 1.065-4.202 3.297 0 2.252 1.81 2.755 3.66 3.116 1.407.282 2.714.382 2.714 1.368 0 .723-.684 1.186-1.89 1.186-1.227 0-2.071-.523-2.252-1.71h-2.533c.16 2.192 1.83 3.64 4.825 3.64Zm14.724-.302V24.924h-2.735v5.951c0 1.367-.784 2.332-2.07 2.332-1.167 0-1.71-.663-1.71-1.87v-6.413h-2.714V31.8c0 2.252 1.287 3.72 3.579 3.72 1.447 0 2.252-.543 2.955-1.488h.06v1.206h2.635Zm1.768 0h2.735v-5.991c0-1.367.744-2.252 1.85-2.252 1.005 0 1.588.603 1.588 1.77v6.473h2.734v-5.991c0-1.367.704-2.252 1.85-2.252 1.005 0 1.588.603 1.588 1.77v6.473h2.735v-6.936c0-2.252-1.227-3.66-3.398-3.66-1.307 0-2.393.684-3.096 1.81h-.04c-.503-1.086-1.549-1.81-2.856-1.81-1.427 0-2.433.724-2.996 1.67h-.06v-1.388h-2.634v10.314ZM47.654 17.572h2.735V3.196h-2.735v14.376Zm9.421.302c3.197 0 5.388-2.372 5.388-5.449 0-3.076-2.191-5.448-5.388-5.448s-5.389 2.372-5.389 5.448c0 3.076 2.192 5.449 5.389 5.449Zm0-2.091c-1.689 0-2.614-1.347-2.614-3.358 0-2.01.925-3.378 2.614-3.378 1.669 0 2.614 1.368 2.614 3.378s-.945 3.358-2.614 3.358Zm11.203 5.308c1.528 0 2.855-.362 3.72-1.166.764-.704 1.227-1.69 1.227-3.137v-9.53H70.59v1.086h-.04c-.624-.865-1.569-1.367-2.856-1.367-2.613 0-4.463 1.97-4.463 5.046 0 3.117 2.252 4.926 4.544 4.926 1.307 0 2.09-.523 2.694-1.206h.06v1.126c0 1.407-.744 2.151-2.292 2.151-1.266 0-1.85-.503-2.07-1.146h-2.715c.281 2.01 2.01 3.217 4.825 3.217Zm-.04-6.333c-1.407 0-2.332-1.026-2.332-2.775 0-1.73.925-2.815 2.312-2.815 1.649 0 2.453 1.287 2.453 2.795 0 1.528-.704 2.795-2.433 2.795Zm11.632 3.116c3.198 0 5.39-2.372 5.39-5.449 0-3.076-2.192-5.448-5.39-5.448-3.196 0-5.388 2.372-5.388 5.448 0 3.076 2.192 5.449 5.389 5.449Zm0-2.091c-1.688 0-2.613-1.347-2.613-3.358 0-2.01.925-3.378 2.614-3.378 1.669 0 2.614 1.368 2.614 3.378s-.945 3.358-2.614 3.358Zm7.786-2.152h11.822V11.28H87.656v2.352Zm12.689 9.541c0-.463.375-.838.838-.838h1.675a.838.838 0 1 1 0 1.675h-1.675a.838.838 0 0 1-.838-.837Z" fill="#252525"/><path fill-rule="evenodd" clip-rule="evenodd" d="M20 0c11.046 0 20 8.954 20 20s-8.954 20-20 20S0 31.046 0 20 8.954 0 20 0Zm-.723 1.497c-2.282.32-4.454 2.154-6.14 5.22-.49.89-.931 1.872-1.316 2.933 2.293-.576 4.812-.916 7.456-.968V1.497Zm-9.146 8.634a23.087 23.087 0 0 1 1.739-4.11c.836-1.52 1.828-2.833 2.946-3.841A18.593 18.593 0 0 0 2.18 14.816c1.008-1.118 2.32-2.11 3.84-2.946a23.087 23.087 0 0 1 4.11-1.74Zm-.48 1.69c-.577 2.293-.917 4.812-.97 7.456H1.498c.32-2.282 2.154-4.454 5.22-6.14.89-.49 1.872-.931 2.933-1.316Zm.477 7.456c.06-2.885.475-5.594 1.162-7.987 2.393-.687 5.102-1.102 7.987-1.162v3.123a10.64 10.64 0 0 1-6.027 6.026h-3.122Zm-1.446 1.446H1.497c.32 2.282 2.154 4.454 5.22 6.14.89.49 1.872.931 2.933 1.316-.576-2.293-.916-4.812-.968-7.456Zm2.608 7.987c-.687-2.393-1.102-5.102-1.162-7.987h3.122a10.64 10.64 0 0 1 6.027 6.026v3.123c-2.885-.06-5.594-.475-7.987-1.162Zm-1.16 1.16a23.087 23.087 0 0 1-4.11-1.74c-1.52-.836-2.832-1.828-3.84-2.946A18.593 18.593 0 0 0 14.816 37.82c-1.118-1.008-2.11-2.32-2.946-3.84a23.086 23.086 0 0 1-1.74-4.11Zm9.147 8.633c-2.282-.32-4.454-2.154-6.14-5.22-.49-.89-.931-1.873-1.316-2.933 2.293.576 4.812.916 7.456.968v7.185Zm5.907-.683c1.118-1.008 2.11-2.32 2.947-3.84a23.093 23.093 0 0 0 1.738-4.11 23.09 23.09 0 0 0 4.11-1.74c1.52-.836 2.833-1.828 3.841-2.946A18.593 18.593 0 0 1 25.184 37.82Zm2.995-7.47a20.824 20.824 0 0 1-1.315 2.933c-1.687 3.066-3.86 4.9-6.141 5.22v-7.185c2.644-.052 5.163-.392 7.456-.968Zm2.17-2.171a20.824 20.824 0 0 0 2.934-1.315c3.066-1.687 4.9-3.86 5.22-6.141h-7.185c-.052 2.644-.392 5.163-.968 7.456Zm-.477-7.456c-.06 2.885-.475 5.594-1.162 7.987-2.393.687-5.102 1.102-7.987 1.162v-3.12a10.64 10.64 0 0 1 6.028-6.03h3.121Zm1.446-1.446h7.185c-.32-2.282-2.154-4.454-5.22-6.14-.89-.49-1.873-.931-2.933-1.316.576 2.293.916 4.812.968 7.456ZM28.71 11.29c.687 2.393 1.102 5.102 1.162 7.987h-3.121a10.64 10.64 0 0 1-6.028-6.029v-3.12c2.885.06 5.594.475 7.987 1.162Zm1.16-1.16a23.09 23.09 0 0 1 4.11 1.74c1.52.836 2.832 1.828 3.84 2.946A18.593 18.593 0 0 0 25.184 2.18c1.118 1.008 2.11 2.32 2.947 3.84a23.095 23.095 0 0 1 1.738 4.11Zm-9.147-8.633c2.282.32 4.454 2.154 6.14 5.22.49.89.931 1.872 1.316 2.933-2.293-.576-4.812-.916-7.456-.968V1.497Z" fill="#252525"/></svg>