<svg width="181" height="36" fill="none" xmlns="http://www.w3.org/2000/svg"><g clip-path="url(#a)" fill="#252525"><path d="M27.132 15.604a4.875 4.875 0 0 0-1.395 3.905l-.024-.024a5.792 5.792 0 0 1-6.259 6.259l.024.024a4.904 4.904 0 1 0 4.428 4.424l.026.024a5.79 5.79 0 0 1 6.259-6.259l-.026-.024a4.895 4.895 0 1 0-3.03-8.33h-.003Z"/><path d="m17.296 22.624-.026-.024a4.842 4.842 0 0 0 5.303-5.299l.026.024a5.793 5.793 0 0 1 6.258-6.259l-.025-.024a4.903 4.903 0 1 0-4.424-4.424l-.024-.025a5.792 5.792 0 0 1-6.259 6.259l.024.025a4.843 4.843 0 0 0-5.303 5.299l-.024-.024a5.795 5.795 0 0 1-6.258 6.258l.024.024a4.903 4.903 0 1 0 4.424 4.424l.025.024a5.792 5.792 0 0 1 6.259-6.258Z"/><path d="M8.36 19.948a4.87 4.87 0 0 0 1.393-3.905l.026.024a5.792 5.792 0 0 1 6.26-6.259l-.024-.024A4.903 4.903 0 1 0 11.59 5.36l-.024-.024a5.791 5.791 0 0 1-6.258 6.259l.024.024a4.894 4.894 0 1 0 3.03 8.329H8.36ZM49.663 6.65h3.96v19.27h-3.96V6.65Zm6.202 12.67a6.997 6.997 0 1 1 6.996 6.969 6.916 6.916 0 0 1-6.996-6.968Zm10.032 0a3.039 3.039 0 0 0-5.213-2.033 3.037 3.037 0 0 0 2.177 5.155 2.963 2.963 0 0 0 3.036-3.121Zm19.743-6.599v12.534c0 4.434-3.459 6.309-6.97 6.309a6.75 6.75 0 0 1-6.255-3.2l3.378-1.954a3.017 3.017 0 0 0 3.01 1.663 2.63 2.63 0 0 0 2.982-2.824v-1.206a4.689 4.689 0 0 1-3.855 1.716 6.708 6.708 0 0 1 0-13.41 4.69 4.69 0 0 1 3.855 1.716V12.72l3.855.002Zm-3.853 6.335a3.2 3.2 0 1 0-3.194 3.066 2.988 2.988 0 0 0 3.194-3.066Zm6.095.264a6.995 6.995 0 1 1 6.996 6.969 6.915 6.915 0 0 1-6.996-6.968Zm10.032 0a3.038 3.038 0 1 0-3.035 3.122 2.962 2.962 0 0 0 3.035-3.121Zm5.807-10.136a2.377 2.377 0 0 1 4.707-.464 2.38 2.38 0 0 1-1.011 2.44c-.39.26-.85.4-1.32.4a2.399 2.399 0 0 1-2.376-2.376Zm.4 3.537h3.962v13.2h-3.967l.005-13.2Zm21.06 6.6a6.619 6.619 0 0 1-1.706 4.796 6.622 6.622 0 0 1-4.603 2.172 4.958 4.958 0 0 1-3.932-1.61V31.2h-3.96V12.721h3.96v1.24a4.955 4.955 0 0 1 3.932-1.609 6.623 6.623 0 0 1 5.936 4.4 6.64 6.64 0 0 1 .373 2.57Zm-3.96 0a3.142 3.142 0 1 0-3.14 3.22 3.015 3.015 0 0 0 3.14-3.22Zm16.18 2.639c0 3.035-2.638 4.329-5.489 4.329a5.777 5.777 0 0 1-5.676-3.142l3.431-1.953a2.171 2.171 0 0 0 2.24 1.557c.949 0 1.425-.29 1.425-.817 0-1.453-6.495-.687-6.495-5.253 0-2.879 2.43-4.33 5.175-4.33a5.769 5.769 0 0 1 5.147 2.824l-3.379 1.822a1.917 1.917 0 0 0-1.768-1.162c-.687 0-1.109.267-1.109.74.005 1.505 6.498.5 6.498 5.384Zm14.465-9.239v13.2h-3.96V24.68a4.512 4.512 0 0 1-3.773 1.61c-2.667 0-4.933-1.9-4.933-5.466V12.72h3.96v7.523a2.15 2.15 0 0 0 .105.931 2.174 2.174 0 0 0 2.191 1.469c1.452 0 2.454-.844 2.454-2.719v-7.2l3.956-.004Zm22.707 5.095v8.104h-3.96v-7.762c0-1.32-.633-2.164-1.9-2.164-1.32 0-2.06.925-2.06 2.482v7.444h-3.958v-7.762c0-1.32-.634-2.164-1.902-2.164-1.32 0-2.058.925-2.058 2.482v7.444h-3.96v-13.2h3.96v1.213a4.05 4.05 0 0 1 3.537-1.582 3.933 3.933 0 0 1 3.457 1.74 4.349 4.349 0 0 1 3.828-1.74c3.031 0 5.016 2.165 5.016 5.465Zm3.35-5.176a2.939 2.939 0 1 0-.001-5.877 2.939 2.939 0 0 0 .001 5.877Z"/></g><defs><clipPath id="a"><path fill="#fff" d="M0 0h180.861v35.555H0z"/></clipPath></defs></svg>