<svg width="150" height="36" fill="none" xmlns="http://www.w3.org/2000/svg"><g clip-path="url(#a)" fill="#252525"><path fill-rule="evenodd" clip-rule="evenodd" d="M19.555.037 19.533 0h-8.94L0 18.158l7.271 12.723.009-.016 2.749 4.761 21.021.094 7.383-12.658h-.05l2.728-4.724L30.68.087 19.555.037Zm6.916 12.11h.056l-5.256-9.129 7.68.034 8.73 15.279-2.732 4.733-7.161.004 2.497-4.325-3.814-6.596Zm-8.737-9.174 3.584 6.2h-4.962L7.86 23.905l-.58 1.001-3.847-6.733 8.866-15.2h5.434Zm-3.446 15.738 3.786-6.564h4.963l3.814 6.597-2.498 4.326-7.546.004-2.518-4.363ZM8.997 27.89l1.44-2.498 2.141-3.698 2.514 4.354 7.545-.004-.012.021 10.608.013-3.885 6.661-17.597-.079-2.754-4.77Z"/><path d="M95.265 10.881a1.851 1.851 0 0 0 1.845-1.867 1.833 1.833 0 0 0-1.845-1.845c-1.04 0-1.867.806-1.867 1.845 0 1.04.828 1.867 1.867 1.867Zm-1.655 12.26h3.288V12.537H93.61v10.606Zm5.202 5.092h3.224V22.08c.615.806 2.015 1.358 3.479 1.358 3.161 0 5.07-2.418 4.985-5.77-.085-3.415-2.058-5.473-5.006-5.473-1.506 0-2.927.658-3.521 1.634l-.17-1.294h-2.991v15.697Zm3.288-10.394c0-1.591 1.061-2.652 2.588-2.652 1.548 0 2.524 1.082 2.524 2.652s-.976 2.651-2.524 2.651c-1.527 0-2.588-1.06-2.588-2.651Zm8.748 1.951c.085 2.143 1.782 3.628 4.455 3.628 2.566 0 4.349-1.358 4.349-3.543 0-1.57-.934-2.609-2.674-3.033l-1.888-.467c-.678-.17-1.103-.34-1.103-.89 0-.552.446-.913 1.103-.913.743 0 1.23.488 1.209 1.21h2.949c-.084-2.207-1.761-3.586-4.094-3.586-2.355 0-4.115 1.4-4.115 3.521 0 1.422.785 2.588 2.885 3.14l1.866.488c.552.148.785.403.785.763 0 .53-.488.87-1.315.87-.954 0-1.463-.445-1.463-1.188h-2.949Zm13.804 3.627c1.293 0 2.587-.594 3.245-1.463l.212 1.188h3.076V12.536h-3.267v5.515c0 1.59-.466 2.46-1.973 2.46-1.167 0-1.93-.53-1.93-2.503v-5.472h-3.267v6.66c0 2.524 1.4 4.221 3.904 4.221Zm11.713-.275V17.35c0-1.782.954-2.291 1.888-2.291 1.04 0 1.719.636 1.719 1.951v6.13h3.223v-5.79c0-1.803.933-2.312 1.867-2.312 1.04 0 1.74.636 1.74 1.972v6.13h3.181v-6.936c0-2.418-1.273-4.03-4.009-4.03-1.527 0-2.779.742-3.33 1.888-.637-1.146-1.739-1.888-3.5-1.888-1.167 0-2.249.53-2.885 1.379l-.127-1.018h-3.055v10.606h3.288ZM50.463 7.446h-3.479v15.697h9.63v-3.076h-6.151V7.447Zm6.484 10.373c0 3.351 2.248 5.579 5.642 5.579 3.373 0 5.621-2.228 5.621-5.58 0-3.35-2.248-5.6-5.62-5.6-3.395 0-5.643 2.25-5.643 5.6Zm3.287-.021c0-1.591.934-2.652 2.355-2.652 1.4 0 2.333 1.06 2.333 2.652 0 1.612-.933 2.672-2.333 2.672-1.421 0-2.355-1.06-2.355-2.672Zm8.502-.148c0 3.203 2.079 5.366 5.027 5.366 1.421 0 2.652-.509 3.267-1.336v1.463c0 1.464-.912 2.44-2.525 2.44-1.442 0-2.439-.679-2.503-1.888h-3.309c.297 2.906 2.546 4.857 5.622 4.857 3.627 0 5.918-2.354 5.918-6.087v-9.928h-2.949l-.17 1.082c-.593-.87-1.845-1.442-3.287-1.442-2.97 0-5.091 2.227-5.091 5.472Zm3.309-.085c0-1.528 1.018-2.546 2.312-2.546 1.506 0 2.609.997 2.609 2.546 0 1.548-1.082 2.609-2.588 2.609-1.294 0-2.333-1.06-2.333-2.61Zm9.14.254c0 3.351 2.248 5.579 5.642 5.579 3.373 0 5.621-2.228 5.621-5.58 0-3.35-2.248-5.6-5.62-5.6-3.395 0-5.643 2.25-5.643 5.6Zm3.288-.021c0-1.591.933-2.652 2.354-2.652 1.4 0 2.334 1.06 2.334 2.652 0 1.612-.934 2.672-2.334 2.672-1.421 0-2.354-1.06-2.354-2.672Z"/></g><defs><clipPath id="a"><path fill="#fff" d="M0 0h149.983v35.72H0z"/></clipPath></defs></svg>