<svg width="175" height="35" fill="none" xmlns="http://www.w3.org/2000/svg"><g clip-path="url(#a)" fill="#252525"><path d="M56.069 28.464a3.927 3.927 0 0 1-2.475-.712 2.313 2.313 0 0 1-.934-1.941V12.07a.385.385 0 0 1 .43-.43h2.49c.281 0 .415.149.415.43v12.673c0 .563.252.844.77.844.22.01.44-.015.653-.074.296 0 .46.09.474.356l.222 1.853a.386.386 0 0 1-.355.46 5.584 5.584 0 0 1-1.69.28Zm14.006-1.586a6.98 6.98 0 0 1-8.893 0 5.929 5.929 0 0 1 0-8.344 7.01 7.01 0 0 1 8.893 0 6.017 6.017 0 0 1 0 8.33v.014Zm-6.55-1.956a3.157 3.157 0 0 0 4.238 0 3.319 3.319 0 0 0 0-4.358 3.157 3.157 0 0 0-4.239 0 3.32 3.32 0 0 0 0 4.358Zm21.935-7.604c.281 0 .415.148.415.43v10.627a4.83 4.83 0 0 1-1.646 3.809 6.224 6.224 0 0 1-4.313 1.482 6.937 6.937 0 0 1-4.016-1.111 4.443 4.443 0 0 1-1.942-2.965c0-.296 0-.43.4-.43h2.49a.549.549 0 0 1 .49.341c.161.45.483.825.904 1.053a3.466 3.466 0 0 0 1.66.385 2.622 2.622 0 0 0 1.912-.682 2.519 2.519 0 0 0 .696-1.853v-.933a4.965 4.965 0 0 1-3.083.963 5.752 5.752 0 0 1-4.209-1.615 5.928 5.928 0 0 1 0-8.241 5.8 5.8 0 0 1 4.21-1.6A4.98 4.98 0 0 1 82.583 18v-.237a.386.386 0 0 1 .415-.43l2.46-.015Zm-5.751 8.478a2.608 2.608 0 0 0 2.03-.874 3.63 3.63 0 0 0 0-4.447 2.595 2.595 0 0 0-2.015-.86 2.665 2.665 0 0 0-2.06.875 3.142 3.142 0 0 0-.8 2.223 3.202 3.202 0 0 0 .785 2.209 2.684 2.684 0 0 0 2.06.874Zm18.956 1.082a7.01 7.01 0 0 1-8.893 0 6.032 6.032 0 0 1 0-8.345 7.025 7.025 0 0 1 8.893 0 6.017 6.017 0 0 1 0 8.33v.015ZM92.1 24.92a2.963 2.963 0 0 0 2.135.816 2.962 2.962 0 0 0 2.12-.816 3.364 3.364 0 0 0 0-4.357 2.96 2.96 0 0 0-2.12-.815 2.966 2.966 0 0 0-2.135.815 3.365 3.365 0 0 0 0 4.357Zm13.591-10.121a2.15 2.15 0 0 1-2.831 0 1.793 1.793 0 0 1 0-2.609 2.193 2.193 0 0 1 2.831 0 1.79 1.79 0 0 1 .562 1.304 1.79 1.79 0 0 1-.562 1.305Zm.311 13.665a3.984 3.984 0 0 1-2.475-.712 2.339 2.339 0 0 1-.919-1.942v-8.062a.39.39 0 0 1 .11-.32.386.386 0 0 1 .32-.11h2.49c.281 0 .415.148.415.43v6.996c0 .563.251.845.755.845.225.008.45-.017.667-.075.297 0 .46.09.475.356l.222 1.853c.011.054.01.11-.003.163a.394.394 0 0 1-.353.296 5.608 5.608 0 0 1-1.704.282Zm11.219-11.502a5.813 5.813 0 0 1 4.239 1.601 6.078 6.078 0 0 1 0 8.285 5.754 5.754 0 0 1-4.239 1.616 5.098 5.098 0 0 1-3.097-.964v5.35c0 .282-.149.416-.43.416h-2.49a.358.358 0 0 1-.317-.098.352.352 0 0 1-.098-.317V20.697a.774.774 0 0 0-.52-.843.774.774 0 0 0-.355-.031h-.489c-.326 0-.489-.119-.489-.356v-1.749a.478.478 0 0 1 .341-.489 4.451 4.451 0 0 1 1.601-.267 2.744 2.744 0 0 1 2.682 1.483 5.008 5.008 0 0 1 3.661-1.483Zm-2.312 7.96a2.827 2.827 0 0 0 2.046.873 2.834 2.834 0 0 0 2.045-.874 3.2 3.2 0 0 0 .815-2.267 3.155 3.155 0 0 0-.815-2.268 2.831 2.831 0 0 0-4.091 0c-.539.63-.82 1.44-.785 2.268a3.32 3.32 0 0 0 .785 2.267Zm15.177 3.542a7.144 7.144 0 0 1-3.809-.92 3.622 3.622 0 0 1-1.719-2.622c0-.297.104-.445.43-.445h2.178a.564.564 0 0 1 .49.326c.311.8 1.126 1.2 2.43 1.2.455.021.908-.07 1.319-.266a.862.862 0 0 0 .504-.727c0-.385-.237-.652-.711-.83a8.024 8.024 0 0 0-1.734-.37 16.502 16.502 0 0 1-2.075-.37 3.402 3.402 0 0 1-1.734-.994 3.163 3.163 0 0 1-.68-2.435 3.168 3.168 0 0 1 1.317-2.16 6.107 6.107 0 0 1 3.587-.948 6.554 6.554 0 0 1 3.498.875 3.31 3.31 0 0 1 1.63 2.327c0 .296-.134.444-.4.444h-2.194a.457.457 0 0 1-.445-.267 1.48 1.48 0 0 0-.77-.785 2.612 2.612 0 0 0-1.275-.296 2.582 2.582 0 0 0-1.26.251.738.738 0 0 0-.474.682.953.953 0 0 0 .711.875c.57.214 1.161.363 1.764.444.693.092 1.381.22 2.06.386.665.15 1.269.496 1.734.993a2.795 2.795 0 0 1 .727 2.03 2.97 2.97 0 0 1-1.379 2.579 6.475 6.475 0 0 1-3.72 1.023Zm20.765-.741a.4.4 0 0 1-.341.46 5.724 5.724 0 0 1-1.675.281 3.288 3.288 0 0 1-2.964-1.29 5.364 5.364 0 0 1-3.779 1.29 4.592 4.592 0 0 1-3.469-1.349 4.87 4.87 0 0 1-1.319-3.572v-5.795c0-.281.134-.43.415-.43h2.49c.282 0 .415.149.415.43v5.35c-.026.667.2 1.32.638 1.824a2.222 2.222 0 0 0 1.704.696 2.461 2.461 0 0 0 1.779-.652 2.374 2.374 0 0 0 .667-1.764v-5.454c0-.281.133-.43.415-.43h2.519c.282 0 .415.149.415.43v6.981c0 .578.252.86.741.86.23.009.46-.016.682-.074a.384.384 0 0 1 .331.059.407.407 0 0 1 .114.13.416.416 0 0 1 .044.166l.178 1.853Zm23.551 0a.37.37 0 0 1-.341.459 5.745 5.745 0 0 1-1.704.282 3.96 3.96 0 0 1-2.476-.712 2.312 2.312 0 0 1-.993-1.941v-3.483a2.62 2.62 0 0 0-.622-1.823 2.107 2.107 0 0 0-1.66-.697 1.862 1.862 0 0 0-1.482.652 2.633 2.633 0 0 0-.563 1.749v5.469c0 .282-.134.43-.415.43h-2.505a.383.383 0 0 1-.32-.11.378.378 0 0 1-.11-.32v-5.35a2.74 2.74 0 0 0-.578-1.823 1.932 1.932 0 0 0-1.482-.697 2.15 2.15 0 0 0-1.631.652 2.451 2.451 0 0 0-.607 1.749v5.469a.39.39 0 0 1-.11.32.384.384 0 0 1-.32.11h-2.416c-.281 0-.415-.148-.415-.43v-6.98a.748.748 0 0 0-.031-.355.763.763 0 0 0-.843-.52h-.489c-.327 0-.49-.119-.49-.356v-1.749a.479.479 0 0 1 .341-.489 4.452 4.452 0 0 1 1.601-.267 2.787 2.787 0 0 1 2.638 1.364 5.017 5.017 0 0 1 3.765-1.364 4.251 4.251 0 0 1 3.512 1.571 4.897 4.897 0 0 1 3.884-1.57 4.68 4.68 0 0 1 3.512 1.348 4.825 4.825 0 0 1 1.319 3.572v2.86c0 .564.252.845.727.845.229.01.459-.014.681-.074.307 0 .47.119.49.356l.133 1.852ZM.608 15.392a20.29 20.29 0 0 1 39.38 0h-1.779c-3-.045-5.939.852-8.403 2.564a4.381 4.381 0 0 1-.445.281h-.208a4.226 4.226 0 0 1-.444-.281 15.073 15.073 0 0 0-16.822 0 4.381 4.381 0 0 1-.445.281h-.207a4.226 4.226 0 0 1-.445-.281 14.363 14.363 0 0 0-8.404-2.564H.608Zm34.4 9.292a4.994 4.994 0 0 1 3.201-1.052h2.386v-4.758H38.21a9.456 9.456 0 0 0-5.676 1.809 5.394 5.394 0 0 1-6.403 0 10.08 10.08 0 0 0-11.516 0 5.394 5.394 0 0 1-6.403 0 9.456 9.456 0 0 0-5.75-1.808H0v4.757h2.386a4.995 4.995 0 0 1 3.202 1.052 10.048 10.048 0 0 0 11.5 0 5.025 5.025 0 0 1 3.202-1.052 4.965 4.965 0 0 1 3.202 1.052 10.078 10.078 0 0 0 11.516 0Zm0 8.508a4.994 4.994 0 0 1 3.201-1.053h2.386v-4.757H38.21a9.456 9.456 0 0 0-5.676 1.808 5.395 5.395 0 0 1-6.403 0 10.078 10.078 0 0 0-11.516 0 5.395 5.395 0 0 1-6.403 0 9.456 9.456 0 0 0-5.75-1.808H0v4.757h2.386a4.995 4.995 0 0 1 3.202 1.053 10.048 10.048 0 0 0 11.5 0 5.025 5.025 0 0 1 3.202-1.053 4.965 4.965 0 0 1 3.202 1.053 10.078 10.078 0 0 0 11.516 0Z"/></g><defs><clipPath id="a"><path fill="#fff" d="M0 0h174.413v35H0z"/></clipPath></defs></svg>